<?xml version="1.0" encoding="UTF-8" standalone="no"?>
<!DOCTYPE svg PUBLIC "-//W3C//DTD SVG 1.1//EN" "http://www.w3.org/Graphics/SVG/1.1/DTD/svg11.dtd">
<svg width="100%" height="100%" viewBox="0 0 3020 1098" version="1.1" xmlns="http://www.w3.org/2000/svg" xmlns:xlink="http://www.w3.org/1999/xlink" xml:space="preserve" xmlns:serif="http://www.serif.com/" style="fill-rule:evenodd;clip-rule:evenodd;stroke-linecap:round;stroke-linejoin:round;stroke-miterlimit:1.5;">
    <g transform="matrix(1,0,0,1,-113.411,-1383.83)">
        <g transform="matrix(0.968084,0,0,0.968084,-198.074,1244.97)">
            <g>
                <g transform="matrix(1,0,0,1,27.4604,41.1906)">
                    <g transform="matrix(0.73504,0,0,1.19835,1735.61,-1219.97)">
                        <path d="M1234.13,1318.66C899.738,1318.66 603.35,1359.96 419.537,1422.34C280.469,1469.54 204.224,1530.62 204.224,1593.58C204.224,1656.54 280.469,1717.62 419.537,1764.81C603.35,1827.2 899.738,1868.49 1234.13,1868.49C1568.52,1868.49 1864.9,1827.2 2048.72,1764.81C2187.78,1717.62 2264.03,1656.54 2264.03,1593.58C2264.03,1530.62 2187.78,1469.54 2048.72,1422.34C1864.9,1359.96 1568.52,1318.66 1234.13,1318.66ZM1234.13,1381.34C1548.01,1381.34 1826.71,1418.62 1999.25,1477.18C2097.82,1510.64 2161.85,1548.95 2161.85,1593.58C2161.85,1638.2 2097.82,1676.52 1999.25,1709.98C1826.71,1768.53 1548.01,1805.82 1234.13,1805.82C920.248,1805.82 641.544,1768.53 469.006,1709.98C370.43,1676.52 306.402,1638.2 306.402,1593.58C306.402,1548.95 370.43,1510.64 469.006,1477.18C641.544,1418.62 920.248,1381.34 1234.13,1381.34Z"/>
                        <path d="M1234.13,1307.71C896.154,1307.71 596.676,1349.71 410.893,1412.76C264.724,1462.37 186.37,1527.41 186.37,1593.58C186.37,1659.75 264.724,1724.79 410.893,1774.4C596.676,1837.45 896.154,1879.45 1234.13,1879.45C1572.1,1879.45 1871.58,1837.45 2057.36,1774.4C2203.53,1724.79 2281.88,1659.75 2281.88,1593.58C2281.88,1527.41 2203.53,1462.37 2057.36,1412.76C1871.58,1349.71 1572.1,1307.71 1234.13,1307.71ZM1234.13,1318.66C899.738,1318.66 603.35,1359.96 419.537,1422.34C280.469,1469.54 204.224,1530.62 204.224,1593.58C204.224,1656.54 280.469,1717.62 419.537,1764.81C603.35,1827.2 899.738,1868.49 1234.13,1868.49C1568.52,1868.49 1864.9,1827.2 2048.72,1764.81C2187.78,1717.62 2264.03,1656.54 2264.03,1593.58C2264.03,1530.62 2187.78,1469.54 2048.72,1422.34C1864.9,1359.96 1568.52,1318.66 1234.13,1318.66ZM1234.13,1381.34C1548.01,1381.34 1826.71,1418.62 1999.25,1477.18C2097.82,1510.64 2161.85,1548.95 2161.85,1593.58C2161.85,1638.2 2097.82,1676.52 1999.25,1709.98C1826.71,1768.53 1548.01,1805.82 1234.13,1805.82C920.248,1805.82 641.544,1768.53 469.006,1709.98C370.43,1676.52 306.402,1638.2 306.402,1593.58C306.402,1548.95 370.43,1510.64 469.006,1477.18C641.544,1418.62 920.248,1381.34 1234.13,1381.34ZM1234.13,1392.29C1544.42,1392.29 1820.03,1428.88 1990.6,1486.77C2037.91,1502.82 2077.04,1519.95 2104.23,1538.51C2129.3,1555.62 2144,1573.83 2144,1593.58C2144,1613.33 2129.3,1631.53 2104.23,1648.65C2077.04,1667.21 2037.91,1684.34 1990.6,1700.39C1820.03,1758.28 1544.42,1794.87 1234.13,1794.87C923.832,1794.87 648.219,1758.28 477.65,1700.39C430.342,1684.34 391.21,1667.21 364.018,1648.65C338.948,1631.53 324.256,1613.33 324.256,1593.58C324.256,1573.83 338.948,1555.62 364.018,1538.51C391.21,1519.95 430.342,1502.82 477.65,1486.77C648.219,1428.88 923.832,1392.29 1234.13,1392.29Z"/>
                    </g>
                    <g transform="matrix(-0.539959,0,0,-0.542424,976.266,1346.37)">
                        <path d="M1200,2205.59L407.02,2205.59L486.318,381.576L1120.7,381.576L1200,2205.59Z" style="stroke:black;stroke-width:24.25px;"/>
                    </g>
                    <g transform="matrix(-0.539959,0,0,-0.542424,1853.06,1346.37)">
                        <path d="M1200,2205.59L407.02,2205.59L486.318,381.576L1120.7,381.576L1200,2205.59Z" style="stroke:black;stroke-width:24.25px;"/>
                    </g>
                    <g transform="matrix(-0.539959,0,0,0.542424,2291.46,33.0241)">
                        <path d="M1200,2205.59L407.02,2205.59L486.318,381.576L1120.7,381.576L1200,2205.59Z" style="stroke:black;stroke-width:24.25px;"/>
                    </g>
                    <g transform="matrix(-0.539959,0,0,0.542424,1414.66,33.0241)">
                        <path d="M1200,2205.59L407.02,2205.59L486.318,381.576L1120.7,381.576L1200,2205.59Z" style="stroke:black;stroke-width:24.25px;"/>
                    </g>
                </g>
                <g transform="matrix(1,0,0,1,1548.27,-633.619)">
                    <g transform="matrix(0.73504,0,0,1.19835,187.335,-586.355)">
                        <ellipse cx="1234.13" cy="1593.58" rx="978.814" ry="243.579"/>
                    </g>
                    <g transform="matrix(0.73504,0,0,1.19835,187.335,-586.355)">
                        <path d="M1234.13,1318.66C899.738,1318.66 603.35,1359.96 419.537,1422.34C280.469,1469.54 204.224,1530.62 204.224,1593.58C204.224,1656.54 280.469,1717.62 419.537,1764.81C603.35,1827.2 899.738,1868.49 1234.13,1868.49C1568.52,1868.49 1864.9,1827.2 2048.72,1764.81C2187.78,1717.62 2264.03,1656.54 2264.03,1593.58C2264.03,1530.62 2187.78,1469.54 2048.72,1422.34C1864.9,1359.96 1568.52,1318.66 1234.13,1318.66ZM1234.13,1381.34C1548.01,1381.34 1826.71,1418.62 1999.25,1477.18C2097.82,1510.64 2161.85,1548.95 2161.85,1593.58C2161.85,1638.2 2097.82,1676.52 1999.25,1709.98C1826.71,1768.53 1548.01,1805.82 1234.13,1805.82C920.248,1805.82 641.544,1768.53 469.006,1709.98C370.43,1676.52 306.402,1638.2 306.402,1593.58C306.402,1548.95 370.43,1510.64 469.006,1477.18C641.544,1418.62 920.248,1381.34 1234.13,1381.34Z" style="fill:rgb(222,176,107);"/>
                        <path d="M1234.13,1307.71C896.154,1307.71 596.676,1349.71 410.893,1412.76C264.724,1462.37 186.37,1527.41 186.37,1593.58C186.37,1659.75 264.724,1724.79 410.893,1774.4C596.676,1837.45 896.154,1879.45 1234.13,1879.45C1572.1,1879.45 1871.58,1837.45 2057.36,1774.4C2203.53,1724.79 2281.88,1659.75 2281.88,1593.58C2281.88,1527.41 2203.53,1462.37 2057.36,1412.76C1871.58,1349.71 1572.1,1307.71 1234.13,1307.71ZM1234.13,1318.66C899.738,1318.66 603.35,1359.96 419.537,1422.34C280.469,1469.54 204.224,1530.62 204.224,1593.58C204.224,1656.54 280.469,1717.62 419.537,1764.81C603.35,1827.2 899.738,1868.49 1234.13,1868.49C1568.52,1868.49 1864.9,1827.2 2048.72,1764.81C2187.78,1717.62 2264.03,1656.54 2264.03,1593.58C2264.03,1530.62 2187.78,1469.54 2048.72,1422.34C1864.9,1359.96 1568.52,1318.66 1234.13,1318.66ZM1234.13,1381.34C1548.01,1381.34 1826.71,1418.62 1999.25,1477.18C2097.82,1510.64 2161.85,1548.95 2161.85,1593.58C2161.85,1638.2 2097.82,1676.52 1999.25,1709.98C1826.71,1768.53 1548.01,1805.82 1234.13,1805.82C920.248,1805.82 641.544,1768.53 469.006,1709.98C370.43,1676.52 306.402,1638.2 306.402,1593.58C306.402,1548.95 370.43,1510.64 469.006,1477.18C641.544,1418.62 920.248,1381.34 1234.13,1381.34ZM1234.13,1392.29C1544.42,1392.29 1820.03,1428.88 1990.6,1486.77C2037.91,1502.82 2077.04,1519.95 2104.23,1538.51C2129.3,1555.62 2144,1573.83 2144,1593.58C2144,1613.33 2129.3,1631.53 2104.23,1648.65C2077.04,1667.21 2037.91,1684.34 1990.6,1700.39C1820.03,1758.28 1544.42,1794.87 1234.13,1794.87C923.832,1794.87 648.219,1758.28 477.65,1700.39C430.342,1684.34 391.21,1667.21 364.018,1648.65C338.948,1631.53 324.256,1613.33 324.256,1593.58C324.256,1573.83 338.948,1555.62 364.018,1538.51C391.21,1519.95 430.342,1502.82 477.65,1486.77C648.219,1428.88 923.832,1392.29 1234.13,1392.29Z"/>
                    </g>
                </g>
                <g transform="matrix(1,0,0,1,17.4034,-60.6099)">
                    <g transform="matrix(1,0,0,1,0,-150)">
                        <g transform="matrix(-0.539959,0,0,-0.542424,958.863,1556.98)">
                            <path d="M1200,2205.59L407.02,2205.59L486.318,381.576L1120.7,381.576L1200,2205.59Z" style="fill:rgb(47,115,133);stroke:black;stroke-width:24.25px;"/>
                        </g>
                        <g transform="matrix(1.69916,0,0,3.88904,-121.841,-6069.53)">
                            <path d="M399.757,1675.49L399.757,1661.93L443.836,1661.93L443.836,1756.87L399.757,1756.87L399.757,1752.52C399.757,1733.05 393.915,1723.31 382.229,1723.31C374.152,1723.31 369.212,1726.53 367.407,1732.96C365.603,1739.39 364.701,1757.45 364.701,1787.12C364.701,1819.7 370.543,1835.98 382.229,1835.98C393.055,1835.98 398.469,1826.94 398.469,1808.86L398.469,1790.08L446.93,1790.08C448.648,1802.71 449.507,1815.47 449.507,1828.33C449.507,1878.18 427.167,1903.1 382.487,1903.1C352.07,1903.1 332.694,1895.97 324.359,1881.71C316.025,1867.46 311.857,1834.48 311.857,1782.78C311.857,1732.7 315.38,1699.4 322.426,1682.88C329.472,1666.36 343.649,1658.1 364.958,1658.1C380.596,1658.1 392.196,1663.9 399.757,1675.49Z" style="fill:white;fill-rule:nonzero;"/>
                        </g>
                    </g>
                    <g transform="matrix(1,0,0,1,10.2211,-60)">
                        <g transform="matrix(-0.539959,0,0,0.542424,1387.04,153.634)">
                            <path d="M1200,2205.59L407.02,2205.59L486.318,381.576L1120.7,381.576L1200,2205.59Z" style="fill:rgb(135,146,120);stroke:black;stroke-width:24.25px;"/>
                        </g>
                        <g transform="matrix(1.69916,0,0,3.88904,41.7864,-6069.53)">
                            <path d="M468.067,1809.21L468.067,1756.35C468.067,1716.47 472.621,1690.13 481.729,1677.32C490.837,1664.51 509.568,1658.1 537.923,1658.1C564.559,1658.1 582.345,1664.74 591.281,1678.01C600.218,1691.29 604.686,1717.51 604.686,1756.69L604.686,1809.21C604.686,1845.37 599.874,1870.06 590.25,1883.28C580.627,1896.49 562.583,1903.1 536.118,1903.1C509.138,1903.1 491.051,1896.76 481.858,1884.06C472.664,1871.37 468.067,1846.42 468.067,1809.21ZM519.879,1757.22L519.879,1801.38C519.879,1824.45 525.55,1835.98 536.892,1835.98C547.546,1835.98 552.874,1824.33 552.874,1801.03L552.874,1755.65L552.358,1745.39L552.1,1738.26C551.413,1728.29 546.171,1723.31 536.376,1723.31C525.378,1723.31 519.879,1734.61 519.879,1757.22Z" style="fill:white;fill-rule:nonzero;"/>
                        </g>
                    </g>
                    <g transform="matrix(1,0,0,1,20.4422,-150)">
                        <g transform="matrix(-0.539959,0,0,-0.542424,1815.22,1556.98)">
                            <path d="M1200,2205.59L407.02,2205.59L486.318,381.576L1120.7,381.576L1200,2205.59Z" style="fill:rgb(215,66,100);stroke:black;stroke-width:24.25px;"/>
                        </g>
                        <g transform="matrix(1.69916,0,0,3.88904,192.274,-6069.53)">
                            <path d="M772.495,1789.56L772.495,1899.28L627.112,1899.28L627.112,1835.81L644.64,1835.81L644.64,1722.61L627.112,1722.61L627.112,1661.93L712.434,1661.93L712.434,1722.61L693.874,1722.61L693.874,1835.81L728.416,1835.81L728.416,1789.56L772.495,1789.56Z" style="fill:white;fill-rule:nonzero;"/>
                        </g>
                    </g>
                    <g transform="matrix(1,0,0,1,0,-60)">
                        <g transform="matrix(-0.539959,0,0,0.542424,2274.06,153.634)">
                            <path d="M1200,2205.59L407.02,2205.59L486.318,381.576L1120.7,381.576L1200,2205.59Z" style="fill:rgb(131,91,117);stroke:black;stroke-width:24.25px;"/>
                        </g>
                        <g transform="matrix(1.04988,0,0,1.04988,-161.533,-1551.5)">
                            <path d="M1872.67,2732.07L1771.04,2732.07L1771.04,2496.97L1797.33,2496.97L1854.06,1852.86L1959.19,1852.86L2017.6,2496.97L2042.21,2496.97L2042.21,2732.07L1917.69,2732.07L1917.69,2496.97L1933.75,2496.97L1924.99,2377.81L1863.24,2377.81L1854.06,2496.97L1872.67,2496.97L1872.67,2732.07ZM1917.06,2287.63L1894.11,2017.11L1870.33,2287.63L1917.06,2287.63Z" style="fill:white;fill-rule:nonzero;"/>
                        </g>
                    </g>
                </g>
                <g transform="matrix(0.865294,0,0,1.19606,1586.03,-2130.79)">
                    <g transform="matrix(1,0,0,1,2.48132,0)">
                        <path d="M840.248,2353.82L770.055,2378.56L780.565,2469.98L739.275,2440.11C733.269,2445.95 726.199,2450.77 718.066,2454.6C709.934,2458.42 701.3,2461.43 692.166,2463.65C683.032,2465.86 673.711,2467.47 664.201,2468.47C654.692,2469.48 645.433,2469.98 636.424,2469.98C615.404,2469.98 596.197,2467.17 578.805,2461.53C561.413,2455.9 546.524,2448.01 534.137,2437.85C521.75,2427.69 512.115,2415.57 505.233,2401.49C498.352,2387.41 494.911,2372.02 494.911,2355.32C495.161,2336.42 499.54,2320.02 508.049,2306.14C516.557,2292.26 527.943,2280.7 542.207,2271.44C556.471,2262.19 573.175,2255.3 592.319,2250.77C611.462,2246.25 631.92,2243.99 653.691,2243.99C665.453,2243.99 677.715,2245.44 690.477,2248.36C703.24,2251.28 714.501,2255.15 724.26,2259.98L773.058,2221.96L759.92,2349.89L744.154,2326.06C739.9,2319.62 734.77,2313.43 728.764,2307.5C722.759,2301.57 716.065,2296.34 708.682,2291.81C701.3,2287.28 693.355,2283.71 684.847,2281.1C676.338,2278.48 667.455,2277.18 658.195,2277.18C643.181,2277.18 630.168,2279.34 619.157,2283.66C608.147,2287.99 598.95,2293.87 591.568,2301.31C584.186,2308.76 578.68,2317.36 575.052,2327.11C571.423,2336.87 569.609,2347.28 569.609,2358.34C569.609,2368.4 571.423,2378.36 575.052,2388.21C578.68,2398.07 583.998,2406.87 591.005,2414.62C598.012,2422.36 606.77,2428.64 617.28,2433.47C627.791,2438.3 640.053,2440.72 654.066,2440.72C672.084,2440.72 686.348,2437.09 696.858,2429.85C707.369,2422.61 712.624,2411.65 712.624,2396.96C712.624,2394.35 712.499,2391.73 712.248,2389.12C711.998,2386.5 711.623,2383.99 711.122,2381.58L619.157,2353.21L840.248,2353.82Z" style="fill:rgb(222,176,107);fill-rule:nonzero;"/>
                        <path d="M781.314,2339.03L793.224,2223.04C793.861,2216.85 789.016,2211.03 781.142,2208.55C773.268,2206.06 764.084,2207.45 758.239,2212L720.488,2241.41C713.1,2238.71 705.13,2236.37 696.569,2234.41C681.696,2231.01 667.397,2229.36 653.691,2229.36C629.689,2229.36 607.142,2231.88 586.037,2236.87C564.127,2242.05 545.032,2249.96 528.707,2260.55C512.389,2271.14 499.296,2284.33 489.563,2300.21C480.049,2315.73 474.97,2334.04 474.69,2355.18C474.689,2355.23 474.689,2355.28 474.689,2355.32C474.689,2373.79 478.558,2390.8 486.168,2406.37C493.964,2422.32 504.94,2436.02 518.972,2447.53C533.276,2459.26 550.46,2468.38 570.543,2474.89C590.434,2481.33 612.383,2484.61 636.424,2484.61C646.382,2484.61 656.616,2484.06 667.127,2482.95C677.825,2481.82 688.312,2480.01 698.587,2477.52C709.341,2474.91 719.507,2471.36 729.082,2466.86C732.802,2465.12 736.345,2463.2 739.71,2461.12C739.71,2461.12 766.266,2480.33 766.266,2480.33C772.266,2484.67 781.374,2485.84 789.072,2483.26C796.77,2480.67 801.421,2474.89 800.717,2468.77L791.354,2387.32C791.354,2387.32 849.106,2366.97 849.106,2366.97C857.559,2363.99 862.058,2357.19 859.962,2350.55C857.866,2343.92 849.728,2339.21 840.325,2339.19L781.314,2339.03ZM840.248,2353.82L770.055,2378.56L780.565,2469.98L739.275,2440.11C733.269,2445.95 726.199,2450.77 718.066,2454.6C709.934,2458.42 701.3,2461.43 692.166,2463.65C683.032,2465.86 673.711,2467.47 664.201,2468.47C654.692,2469.48 645.433,2469.98 636.424,2469.98C615.404,2469.98 596.197,2467.17 578.805,2461.53C561.413,2455.9 546.524,2448.01 534.137,2437.85C521.75,2427.69 512.115,2415.57 505.233,2401.49C498.352,2387.41 494.911,2372.02 494.911,2355.32C495.161,2336.42 499.54,2320.02 508.049,2306.14C516.557,2292.26 527.943,2280.7 542.207,2271.44C556.471,2262.19 573.175,2255.3 592.319,2250.77C611.462,2246.25 631.92,2243.99 653.691,2243.99C665.453,2243.99 677.715,2245.44 690.477,2248.36C703.24,2251.28 714.501,2255.15 724.26,2259.98L773.058,2221.96L759.92,2349.89L744.154,2326.06C739.9,2319.62 734.77,2313.43 728.764,2307.5C722.759,2301.57 716.065,2296.34 708.682,2291.81C701.3,2287.28 693.355,2283.71 684.847,2281.1C676.338,2278.48 667.455,2277.18 658.195,2277.18C643.181,2277.18 630.168,2279.34 619.157,2283.66C608.147,2287.99 598.95,2293.87 591.568,2301.31C584.186,2308.76 578.68,2317.36 575.052,2327.11C571.423,2336.87 569.609,2347.28 569.609,2358.34C569.609,2368.4 571.423,2378.36 575.052,2388.21C578.68,2398.07 583.998,2406.87 591.005,2414.62C598.012,2422.36 606.77,2428.64 617.28,2433.47C627.791,2438.3 640.053,2440.72 654.066,2440.72C672.084,2440.72 686.348,2437.09 696.858,2429.85C707.369,2422.61 712.624,2411.65 712.624,2396.96C712.624,2394.35 712.499,2391.73 712.248,2389.12C711.998,2386.5 711.623,2383.99 711.122,2381.58L619.157,2353.21L840.248,2353.82ZM730.222,2338.89L725.911,2332.37C722.191,2326.74 717.7,2321.33 712.449,2316.14C707.409,2311.16 701.803,2306.77 695.608,2302.97C689.823,2299.42 683.607,2296.61 676.939,2294.56C670.956,2292.72 664.707,2291.8 658.195,2291.8C646.911,2291.8 637.081,2293.27 628.806,2296.52C620.499,2299.78 613.567,2304.23 607.998,2309.84C601.974,2315.92 597.54,2322.95 594.579,2330.91C591.393,2339.48 589.831,2348.63 589.831,2358.34C589.831,2367.13 591.421,2375.83 594.593,2384.45C597.635,2392.71 602.049,2400.11 607.925,2406.6C613.315,2412.56 620.035,2417.41 628.12,2421.12C635.519,2424.52 644.201,2426.09 654.066,2426.09C666.125,2426.09 675.878,2424.11 682.912,2419.26C689.956,2414.41 692.402,2406.8 692.402,2396.96C692.402,2395.19 692.336,2393.42 692.201,2391.64L611.227,2366.67C602.375,2363.94 597.409,2357.08 599.352,2350.26C601.296,2343.44 609.611,2338.56 619.234,2338.58L730.222,2338.89Z"/>
                    </g>
                    <g transform="matrix(1,0,0,1,2.48132,0)">
                        <path d="M840.248,2353.82L770.055,2378.56L780.565,2469.98L739.275,2440.11C733.269,2445.95 726.199,2450.77 718.066,2454.6C709.934,2458.42 701.3,2461.43 692.166,2463.65C683.032,2465.86 673.711,2467.47 664.201,2468.47C654.692,2469.48 645.433,2469.98 636.424,2469.98C615.404,2469.98 596.197,2467.17 578.805,2461.53C561.413,2455.9 546.524,2448.01 534.137,2437.85C521.75,2427.69 512.115,2415.57 505.233,2401.49C498.352,2387.41 494.911,2372.02 494.911,2355.32C495.161,2336.42 499.54,2320.02 508.049,2306.14C516.557,2292.26 527.943,2280.7 542.207,2271.44C556.471,2262.19 573.175,2255.3 592.319,2250.77C611.462,2246.25 631.92,2243.99 653.691,2243.99C665.453,2243.99 677.715,2245.44 690.477,2248.36C703.24,2251.28 714.501,2255.15 724.26,2259.98L773.058,2221.96L759.92,2349.89L744.154,2326.06C739.9,2319.62 734.77,2313.43 728.764,2307.5C722.759,2301.57 716.065,2296.34 708.682,2291.81C701.3,2287.28 693.355,2283.71 684.847,2281.1C676.338,2278.48 667.455,2277.18 658.195,2277.18C643.181,2277.18 630.168,2279.34 619.157,2283.66C608.147,2287.99 598.95,2293.87 591.568,2301.31C584.186,2308.76 578.68,2317.36 575.052,2327.11C571.423,2336.87 569.609,2347.28 569.609,2358.34C569.609,2368.4 571.423,2378.36 575.052,2388.21C578.68,2398.07 583.998,2406.87 591.005,2414.62C598.012,2422.36 606.77,2428.64 617.28,2433.47C627.791,2438.3 640.053,2440.72 654.066,2440.72C672.084,2440.72 686.348,2437.09 696.858,2429.85C707.369,2422.61 712.624,2411.65 712.624,2396.96C712.624,2394.35 712.499,2391.73 712.248,2389.12C711.998,2386.5 711.623,2383.99 711.122,2381.58L619.157,2353.21L840.248,2353.82Z" style="fill:rgb(222,176,107);fill-rule:nonzero;"/>
                    </g>
                    <g transform="matrix(1,0,0,1,8.6846,6.14445)">
                        <path d="M1071.55,2460.63L952.558,2464.55L955.186,2447.66C947.178,2448.46 939.17,2448.91 931.162,2449.01C923.154,2449.11 915.147,2449.16 907.139,2449.16C899.882,2449.16 891.874,2448.46 883.115,2447.05C874.357,2445.64 866.224,2443.38 858.716,2440.26C851.209,2437.14 844.953,2433.07 839.948,2428.04C834.943,2423.01 832.441,2416.88 832.441,2409.64C832.441,2401.59 834.818,2394.75 839.573,2389.12C844.327,2383.49 850.396,2378.96 857.778,2375.54C865.16,2372.12 873.356,2369.61 882.365,2368C891.373,2366.39 900.132,2365.58 908.64,2365.58C919.151,2365.58 929.411,2365.99 939.42,2366.79C949.43,2367.6 959.565,2368.3 969.825,2368.9C970.326,2366.29 970.701,2363.62 970.951,2360.91C971.201,2358.19 971.327,2355.43 971.327,2352.61C971.327,2347.18 970.763,2341.85 969.637,2336.62C968.511,2331.39 966.509,2326.71 963.631,2322.59C960.754,2318.46 956.75,2315.19 951.62,2312.78C946.49,2310.37 939.921,2309.16 931.913,2309.16C924.406,2309.16 917.586,2310.11 911.455,2312.03C905.325,2313.94 899.882,2317.2 895.127,2321.83C898.63,2324.05 901.008,2326.51 902.259,2329.22C903.51,2331.94 904.136,2335.01 904.136,2338.43L904.136,2340.24C900.382,2354.32 889.371,2361.36 871.104,2361.36C862.845,2361.36 856.089,2358.99 850.834,2354.27C845.579,2349.54 842.951,2343.96 842.951,2337.52C842.951,2328.67 846.079,2321.03 852.335,2314.59C858.591,2308.15 866.286,2302.82 875.42,2298.6C884.554,2294.37 894.439,2291.26 905.074,2289.24C915.71,2287.23 925.532,2286.23 934.541,2286.23C963.319,2286.23 985.778,2291.56 1001.92,2302.22C1018.06,2312.88 1026.13,2330.28 1026.13,2354.42C1026.13,2357.03 1026.07,2359.65 1025.94,2362.26C1025.82,2364.88 1025.63,2367.49 1025.38,2370.11L1016.37,2439.51C1025.88,2442.93 1035.14,2446.45 1044.15,2450.07C1053.16,2453.69 1062.29,2457.21 1071.55,2460.63ZM965.696,2389.12C959.19,2388.51 952.683,2387.86 946.177,2387.16C939.671,2386.45 933.164,2386.1 926.658,2386.1C922.404,2386.1 918.212,2386.45 914.083,2387.16C909.954,2387.86 906.2,2389.02 902.822,2390.63C899.444,2392.24 896.754,2394.4 894.752,2397.11C892.75,2399.83 891.749,2403.2 891.749,2407.22C891.749,2410.24 892.625,2412.91 894.376,2415.22C896.128,2417.53 898.443,2419.49 901.321,2421.1C904.198,2422.71 907.326,2423.92 910.705,2424.72C914.083,2425.53 917.399,2425.93 920.652,2425.93C927.158,2425.93 933.727,2425.63 940.359,2425.03C946.99,2424.42 953.434,2423.82 959.69,2423.21L965.696,2389.12Z" style="fill:rgb(222,176,107);fill-rule:nonzero;"/>
                    </g>
                    <g transform="matrix(1,0,0,1,9.92526,6.14445)">
                        <path d="M1475.52,2425.63L1321.24,2420.2L1371.54,2400.58C1372.04,2394.35 1372.48,2388.16 1372.86,2382.03C1373.23,2375.89 1373.42,2369.71 1373.42,2363.47C1373.42,2358.24 1372.92,2353.56 1371.92,2349.44C1370.92,2345.32 1369.16,2341.8 1366.66,2338.88C1364.16,2335.96 1360.59,2333.7 1355.96,2332.09C1351.34,2330.48 1345.52,2329.68 1338.51,2329.68C1332.5,2329.68 1327.12,2330.78 1322.37,2333C1317.62,2335.21 1313.55,2338.08 1310.17,2341.6C1306.79,2345.12 1304.16,2349.04 1302.29,2353.36C1300.41,2357.69 1299.22,2362.06 1298.72,2366.49C1297.47,2374.94 1296.34,2383.49 1295.34,2392.14C1294.34,2400.78 1293.34,2409.33 1292.34,2417.78L1342.26,2437.7L1179.36,2438.6L1249.55,2416.88L1249.55,2362.57C1249.55,2357.34 1248.42,2352.26 1246.17,2347.33C1243.92,2342.4 1240.66,2338.12 1236.41,2334.51C1232.66,2331.69 1228.46,2329.83 1223.84,2328.92C1219.21,2328.02 1214.39,2327.57 1209.38,2327.57C1202.63,2327.57 1195.43,2328.47 1187.8,2330.28C1180.17,2332.09 1174.48,2335.51 1170.72,2340.54L1162.46,2399.08L1212.01,2421.1L1057.74,2421.71L1120.8,2400.89L1109.54,2328.17C1102.28,2326.56 1093.9,2324.7 1084.39,2322.59C1074.88,2320.47 1065.74,2318.31 1056.99,2316.1C1046.97,2313.68 1036.59,2311.17 1025.83,2308.56L1174.85,2288.64L1172.97,2307.05C1182.73,2302.02 1192.81,2298.6 1203.19,2296.79C1213.58,2294.98 1224.02,2294.07 1234.53,2294.07C1245.29,2294.07 1254.93,2295.83 1263.44,2299.35C1271.94,2302.87 1279.95,2307.55 1287.46,2313.38C1298.47,2308.76 1310.23,2304.63 1322.75,2301.01C1335.26,2297.39 1347.89,2295.58 1360.66,2295.58C1371.67,2295.58 1381.24,2296.99 1389.37,2299.8C1397.51,2302.62 1404.2,2306.59 1409.45,2311.72C1414.71,2316.85 1418.65,2322.89 1421.28,2329.83C1423.91,2336.77 1425.22,2344.46 1425.22,2352.91C1425.22,2356.73 1424.91,2361.31 1424.28,2366.64C1423.66,2371.97 1422.97,2377.25 1422.22,2382.48C1421.22,2388.51 1420.34,2394.75 1419.59,2401.19L1475.52,2425.63Z" style="fill:rgb(222,176,107);fill-rule:nonzero;"/>
                    </g>
                    <g transform="matrix(1,0,0,1,0,6.14445)">
                        <path d="M1912.6,2406.62C1912.6,2416.68 1909.72,2424.92 1903.96,2431.36C1898.21,2437.8 1890.95,2442.88 1882.19,2446.6C1873.43,2450.32 1863.67,2452.93 1852.91,2454.44C1842.15,2455.95 1831.77,2456.71 1821.76,2456.71C1816,2456.71 1809.68,2456.36 1802.8,2455.65C1795.92,2454.95 1789.1,2453.89 1782.34,2452.48C1775.59,2451.07 1769.02,2449.36 1762.64,2447.35C1756.26,2445.34 1750.56,2442.93 1745.56,2440.11L1715.15,2468.78L1726.79,2376.45C1731.04,2383.89 1736.49,2390.93 1743.12,2397.57C1749.75,2404.2 1757.32,2410.04 1765.83,2415.07C1774.34,2420.1 1783.47,2424.07 1793.23,2426.99C1802.99,2429.9 1813.12,2431.36 1823.63,2431.36C1826.39,2431.36 1829.58,2431.21 1833.21,2430.91C1836.84,2430.61 1840.34,2429.95 1843.72,2428.95C1847.1,2427.94 1849.91,2426.53 1852.16,2424.72C1854.41,2422.91 1855.54,2420.5 1855.54,2417.48C1855.54,2414.06 1853.29,2410.89 1848.78,2407.98C1844.28,2405.06 1839.03,2402.55 1833.02,2400.43C1827.01,2398.32 1821.01,2396.51 1815,2395C1809,2393.49 1804.49,2392.34 1801.49,2391.53C1792.98,2389.52 1783.66,2386.76 1773.52,2383.24C1763.39,2379.71 1754,2375.49 1745.37,2370.56C1736.74,2365.63 1729.54,2359.8 1723.79,2353.06C1718.03,2346.32 1715.15,2338.53 1715.15,2329.68C1715.15,2321.23 1717.72,2313.68 1722.85,2307.05C1727.98,2300.41 1734.55,2294.83 1742.56,2290.3C1750.56,2285.78 1759.51,2282.36 1769.39,2280.04C1779.28,2277.73 1788.98,2276.57 1798.49,2276.57C1813.5,2276.57 1827.7,2278.73 1841.09,2283.06C1854.48,2287.38 1866.68,2293.57 1877.69,2301.62L1900.96,2265.41L1896.08,2360.76C1891.58,2353.92 1885.94,2347.03 1879.19,2340.09C1872.43,2333.15 1864.92,2326.86 1856.67,2321.23C1848.41,2315.6 1839.53,2311.07 1830.02,2307.65C1820.51,2304.23 1810.62,2302.52 1800.36,2302.52C1797.36,2302.52 1793.92,2302.77 1790.04,2303.28C1786.16,2303.78 1782.53,2304.63 1779.15,2305.84C1775.78,2307.05 1772.9,2308.71 1770.52,2310.82C1768.14,2312.93 1766.95,2315.6 1766.95,2318.81C1766.95,2322.64 1768.77,2325.95 1772.4,2328.77C1776.03,2331.59 1780.4,2334.05 1785.54,2336.16C1790.66,2338.28 1795.92,2340.09 1801.3,2341.6C1806.68,2343.1 1811.12,2344.26 1814.63,2345.07C1823.63,2347.48 1833.77,2350.3 1845.03,2353.51C1856.29,2356.73 1866.93,2360.66 1876.94,2365.28C1886.95,2369.91 1895.39,2375.59 1902.27,2382.33C1909.16,2389.07 1912.6,2397.16 1912.6,2406.62Z" style="fill:rgb(222,176,107);fill-rule:nonzero;"/>
                        <path d="M1711.97,2366.5C1709,2368.8 1707.07,2371.8 1706.65,2375.12L1695.02,2467.45C1694.2,2473.93 1699.4,2480.03 1707.79,2482.4C1716.17,2484.77 1725.72,2482.85 1731.2,2477.68L1750.55,2459.43C1751.86,2459.89 1753.2,2460.34 1754.56,2460.76C1761.74,2463.03 1769.14,2464.95 1776.75,2466.54C1784.42,2468.14 1792.16,2469.34 1799.97,2470.14C1799.97,2470.14 1799.97,2470.14 1799.97,2470.14C1807.88,2470.95 1815.14,2471.34 1821.76,2471.34C1833,2471.34 1844.67,2470.5 1856.76,2468.81C1869.88,2466.97 1881.76,2463.75 1892.43,2459.21C1903.89,2454.35 1913.41,2447.73 1920.94,2439.31C1928.57,2430.78 1932.82,2419.94 1932.82,2406.62C1932.82,2393.76 1927.9,2382.8 1918.54,2373.64C1916.8,2371.93 1914.98,2370.28 1913.07,2368.69C1914.99,2366.54 1916.15,2364 1916.29,2361.3L1921.17,2265.95C1921.52,2258.99 1915.05,2252.81 1905.69,2251.18C1896.33,2249.55 1886.68,2252.92 1882.62,2259.24L1870.42,2278.23C1863.69,2274.91 1856.66,2272.07 1849.33,2269.7C1833.35,2264.54 1816.41,2261.94 1798.49,2261.94C1786.94,2261.94 1775.17,2263.32 1763.17,2266.12C1750.99,2268.97 1739.97,2273.2 1730.11,2278.77C1719.99,2284.49 1711.68,2291.53 1705.2,2299.91C1698.44,2308.65 1694.93,2318.55 1694.93,2329.68C1694.93,2341.45 1698.93,2351.79 1706.58,2360.75C1708.28,2362.73 1710.07,2364.65 1711.97,2366.5ZM1912.6,2406.62C1912.6,2416.68 1909.72,2424.92 1903.96,2431.36C1898.21,2437.8 1890.95,2442.88 1882.19,2446.6C1873.43,2450.32 1863.67,2452.93 1852.91,2454.44C1842.15,2455.95 1831.77,2456.71 1821.76,2456.71C1816,2456.71 1809.68,2456.36 1802.8,2455.65C1795.92,2454.95 1789.1,2453.89 1782.34,2452.48C1775.59,2451.07 1769.02,2449.36 1762.64,2447.35C1756.26,2445.34 1750.56,2442.93 1745.56,2440.11L1715.15,2468.78L1726.79,2376.45C1731.04,2383.89 1736.49,2390.93 1743.12,2397.57C1749.75,2404.2 1757.32,2410.04 1765.83,2415.07C1774.34,2420.1 1783.47,2424.07 1793.23,2426.99C1802.99,2429.9 1813.12,2431.36 1823.63,2431.36C1826.39,2431.36 1829.58,2431.21 1833.21,2430.91C1836.84,2430.61 1840.34,2429.95 1843.72,2428.95C1847.1,2427.94 1849.91,2426.53 1852.16,2424.72C1854.41,2422.91 1855.54,2420.5 1855.54,2417.48C1855.54,2414.06 1853.29,2410.89 1848.78,2407.98C1844.28,2405.06 1839.03,2402.55 1833.02,2400.43C1827.01,2398.32 1821.01,2396.51 1815,2395C1809,2393.49 1804.49,2392.34 1801.49,2391.53C1792.98,2389.52 1783.66,2386.76 1773.52,2383.24C1763.39,2379.71 1754,2375.49 1745.37,2370.56C1736.74,2365.63 1729.54,2359.8 1723.79,2353.06C1718.03,2346.32 1715.15,2338.53 1715.15,2329.68C1715.15,2321.23 1717.72,2313.68 1722.85,2307.05C1727.98,2300.41 1734.55,2294.83 1742.56,2290.3C1750.56,2285.78 1759.51,2282.36 1769.39,2280.04C1779.28,2277.73 1788.98,2276.57 1798.49,2276.57C1813.5,2276.57 1827.7,2278.73 1841.09,2283.06C1854.48,2287.38 1866.68,2293.57 1877.69,2301.62L1900.96,2265.41L1896.08,2360.76C1891.58,2353.92 1885.94,2347.03 1879.19,2340.09C1872.43,2333.15 1864.92,2326.86 1856.67,2321.23C1848.41,2315.6 1839.53,2311.07 1830.02,2307.65C1820.51,2304.23 1810.62,2302.52 1800.36,2302.52C1797.36,2302.52 1793.92,2302.77 1790.04,2303.28C1786.16,2303.78 1782.53,2304.63 1779.15,2305.84C1775.78,2307.05 1772.9,2308.71 1770.52,2310.82C1768.14,2312.93 1766.95,2315.6 1766.95,2318.81C1766.95,2322.64 1768.77,2325.95 1772.4,2328.77C1776.03,2331.59 1780.4,2334.05 1785.54,2336.16C1790.66,2338.28 1795.92,2340.09 1801.3,2341.6C1806.68,2343.1 1811.12,2344.26 1814.63,2345.07C1823.63,2347.48 1833.77,2350.3 1845.03,2353.51C1856.29,2356.73 1866.93,2360.66 1876.94,2365.28C1886.95,2369.91 1895.39,2375.59 1902.27,2382.33C1909.16,2389.07 1912.6,2397.16 1912.6,2406.62ZM1770.42,2398.33C1773.03,2400.25 1775.76,2402.05 1778.62,2403.74C1785.56,2407.84 1793,2411.09 1800.95,2413.47C1808.23,2415.64 1815.79,2416.73 1823.63,2416.73C1825.71,2416.73 1828.12,2416.61 1830.86,2416.38C1828.8,2415.36 1826.57,2414.43 1824.18,2413.59C1818.91,2411.74 1813.64,2410.15 1808.37,2408.82C1802.43,2407.33 1797.91,2406.17 1794.84,2405.35C1787.29,2403.55 1779.15,2401.22 1770.42,2398.33ZM1853.88,2340.33C1850.38,2337.34 1846.68,2334.53 1842.8,2331.87C1836.04,2327.27 1828.79,2323.55 1821.02,2320.75C1814.39,2318.37 1807.51,2317.15 1800.36,2317.15C1798.39,2317.15 1796.15,2317.35 1793.61,2317.68C1793.61,2317.68 1793.61,2317.68 1793.61,2317.68C1791.65,2317.93 1789.81,2318.35 1788.11,2318.96L1787.65,2319.14C1789.86,2320.78 1792.5,2322.2 1795.54,2323.45C1799.79,2325.2 1804.15,2326.7 1808.61,2327.95C1813.51,2329.33 1817.55,2330.39 1820.74,2331.12C1821.05,2331.19 1821.35,2331.27 1821.65,2331.35C1830.78,2333.79 1841.05,2336.65 1852.46,2339.91L1853.88,2340.33Z"/>
                    </g>
                    <g transform="matrix(1,0,0,1,0,6.14445)">
                        <path d="M1912.6,2406.62C1912.6,2416.68 1909.72,2424.92 1903.96,2431.36C1898.21,2437.8 1890.95,2442.88 1882.19,2446.6C1873.43,2450.32 1863.67,2452.93 1852.91,2454.44C1842.15,2455.95 1831.77,2456.71 1821.76,2456.71C1816,2456.71 1809.68,2456.36 1802.8,2455.65C1795.92,2454.95 1789.1,2453.89 1782.34,2452.48C1775.59,2451.07 1769.02,2449.36 1762.64,2447.35C1756.26,2445.34 1750.56,2442.93 1745.56,2440.11L1715.15,2468.78L1726.79,2376.45C1731.04,2383.89 1736.49,2390.93 1743.12,2397.57C1749.75,2404.2 1757.32,2410.04 1765.83,2415.07C1774.34,2420.1 1783.47,2424.07 1793.23,2426.99C1802.99,2429.9 1813.12,2431.36 1823.63,2431.36C1826.39,2431.36 1829.58,2431.21 1833.21,2430.91C1836.84,2430.61 1840.34,2429.95 1843.72,2428.95C1847.1,2427.94 1849.91,2426.53 1852.16,2424.72C1854.41,2422.91 1855.54,2420.5 1855.54,2417.48C1855.54,2414.06 1853.29,2410.89 1848.78,2407.98C1844.28,2405.06 1839.03,2402.55 1833.02,2400.43C1827.01,2398.32 1821.01,2396.51 1815,2395C1809,2393.49 1804.49,2392.34 1801.49,2391.53C1792.98,2389.52 1783.66,2386.76 1773.52,2383.24C1763.39,2379.71 1754,2375.49 1745.37,2370.56C1736.74,2365.63 1729.54,2359.8 1723.79,2353.06C1718.03,2346.32 1715.15,2338.53 1715.15,2329.68C1715.15,2321.23 1717.72,2313.68 1722.85,2307.05C1727.98,2300.41 1734.55,2294.83 1742.56,2290.3C1750.56,2285.78 1759.51,2282.36 1769.39,2280.04C1779.28,2277.73 1788.98,2276.57 1798.49,2276.57C1813.5,2276.57 1827.7,2278.73 1841.09,2283.06C1854.48,2287.38 1866.68,2293.57 1877.69,2301.62L1900.96,2265.41L1896.08,2360.76C1891.58,2353.92 1885.94,2347.03 1879.19,2340.09C1872.43,2333.15 1864.92,2326.86 1856.67,2321.23C1848.41,2315.6 1839.53,2311.07 1830.02,2307.65C1820.51,2304.23 1810.62,2302.52 1800.36,2302.52C1797.36,2302.52 1793.92,2302.77 1790.04,2303.28C1786.16,2303.78 1782.53,2304.63 1779.15,2305.84C1775.78,2307.05 1772.9,2308.71 1770.52,2310.82C1768.14,2312.93 1766.95,2315.6 1766.95,2318.81C1766.95,2322.64 1768.77,2325.95 1772.4,2328.77C1776.03,2331.59 1780.4,2334.05 1785.54,2336.16C1790.66,2338.28 1795.92,2340.09 1801.3,2341.6C1806.68,2343.1 1811.12,2344.26 1814.63,2345.07C1823.63,2347.48 1833.77,2350.3 1845.03,2353.51C1856.29,2356.73 1866.93,2360.66 1876.94,2365.28C1886.95,2369.91 1895.39,2375.59 1902.27,2382.33C1909.16,2389.07 1912.6,2397.16 1912.6,2406.62Z" style="fill:rgb(222,176,107);fill-rule:nonzero;"/>
                    </g>
                    <g transform="matrix(1,0,0,1,18.6099,6.14445)">
                        <path d="M1688.43,2402.7C1688.43,2404.1 1688.37,2405.51 1688.24,2406.92C1688.12,2408.33 1688.05,2409.74 1688.05,2411.14L1535.28,2413.56C1538.53,2425.43 1545.91,2434.18 1557.42,2439.81C1568.94,2445.44 1581.95,2448.26 1596.46,2448.26C1603.47,2448.26 1610.6,2447.86 1617.86,2447.05C1625.12,2446.25 1632.25,2444.94 1639.25,2443.13C1646.26,2441.32 1652.89,2438.95 1659.15,2436.04C1665.4,2433.12 1671.04,2429.65 1676.04,2425.63C1673.29,2434.08 1668.66,2441.52 1662.15,2447.96C1655.64,2454.39 1647.95,2459.72 1639.07,2463.95C1630.18,2468.17 1620.55,2471.34 1610.16,2473.45C1599.78,2475.57 1589.46,2476.62 1579.2,2476.62C1565.18,2476.62 1551.86,2474.61 1539.22,2470.59C1526.58,2466.56 1515.57,2461.03 1506.19,2453.99C1496.8,2446.95 1489.36,2438.5 1483.85,2428.64C1478.35,2418.79 1475.59,2408.03 1475.59,2396.36C1475.59,2384.09 1478.72,2372.93 1484.98,2362.87C1491.24,2352.81 1499.49,2344.21 1509.75,2337.07C1520.01,2329.93 1531.9,2324.45 1545.41,2320.62C1558.93,2316.8 1573.07,2314.89 1587.83,2314.89C1603.34,2314.89 1617.3,2317.2 1629.68,2321.83C1642.07,2326.46 1652.64,2332.8 1661.4,2340.84C1670.16,2348.89 1676.85,2358.19 1681.48,2368.75C1686.11,2379.31 1688.43,2390.63 1688.43,2402.7ZM1631,2387.31C1630.5,2381.88 1629.12,2376.65 1626.87,2371.62C1624.62,2366.59 1621.49,2362.16 1617.48,2358.34C1613.48,2354.52 1608.66,2351.45 1603.03,2349.14C1597.4,2346.83 1590.83,2345.67 1583.33,2345.67C1575.82,2345.67 1569.31,2346.78 1563.81,2348.99C1558.3,2351.2 1553.67,2354.17 1549.92,2357.89C1546.16,2361.61 1543.1,2365.93 1540.72,2370.86C1538.34,2375.79 1536.53,2380.87 1535.28,2386.1L1631,2387.31Z" style="fill:rgb(222,176,107);fill-rule:nonzero;"/>
                    </g>
                </g>
            </g>
        </g>
    </g>
</svg>
