<?xml version="1.0" encoding="utf-8" ?>
<svg baseProfile="tiny" height="500px" version="1.2" width="500px" xmlns="http://www.w3.org/2000/svg" xmlns:ev="http://www.w3.org/2001/xml-events" xmlns:xlink="http://www.w3.org/1999/xlink"><defs /><rect fill="#1a202c" height="100%" width="100%" x="0" y="0" /><circle cx="25" cy="25" fill="#2d3748" opacity="0.6" r="8" /><line stroke="#4a5568" stroke-width="1" x1="0" x2="50" y1="0" y2="50" /><line stroke="#4a5568" stroke-width="1" x1="50" x2="0" y1="0" y2="50" /><circle cx="25" cy="75" fill="#2d3748" opacity="0.6" r="8" /><line stroke="#4a5568" stroke-width="1" x1="0" x2="50" y1="50" y2="100" /><line stroke="#4a5568" stroke-width="1" x1="50" x2="0" y1="50" y2="100" /><circle cx="25" cy="125" fill="#2d3748" opacity="0.6" r="8" /><line stroke="#4a5568" stroke-width="1" x1="0" x2="50" y1="100" y2="150" /><line stroke="#4a5568" stroke-width="1" x1="50" x2="0" y1="100" y2="150" /><circle cx="25" cy="175" fill="#2d3748" opacity="0.6" r="8" /><line stroke="#4a5568" stroke-width="1" x1="0" x2="50" y1="150" y2="200" /><line stroke="#4a5568" stroke-width="1" x1="50" x2="0" y1="150" y2="200" /><circle cx="25" cy="225" fill="#2d3748" opacity="0.6" r="8" /><line stroke="#4a5568" stroke-width="1" x1="0" x2="50" y1="200" y2="250" /><line stroke="#4a5568" stroke-width="1" x1="50" x2="0" y1="200" y2="250" /><circle cx="25" cy="275" fill="#2d3748" opacity="0.6" r="8" /><line stroke="#4a5568" stroke-width="1" x1="0" x2="50" y1="250" y2="300" /><line stroke="#4a5568" stroke-width="1" x1="50" x2="0" y1="250" y2="300" /><circle cx="25" cy="325" fill="#2d3748" opacity="0.6" r="8" /><line stroke="#4a5568" stroke-width="1" x1="0" x2="50" y1="300" y2="350" /><line stroke="#4a5568" stroke-width="1" x1="50" x2="0" y1="300" y2="350" /><circle cx="25" cy="375" fill="#2d3748" opacity="0.6" r="8" /><line stroke="#4a5568" stroke-width="1" x1="0" x2="50" y1="350" y2="400" /><line stroke="#4a5568" stroke-width="1" x1="50" x2="0" y1="350" y2="400" /><circle cx="25" cy="425" fill="#2d3748" opacity="0.6" r="8" /><line stroke="#4a5568" stroke-width="1" x1="0" x2="50" y1="400" y2="450" /><line stroke="#4a5568" stroke-width="1" x1="50" x2="0" y1="400" y2="450" /><circle cx="25" cy="475" fill="#2d3748" opacity="0.6" r="8" /><line stroke="#4a5568" stroke-width="1" x1="0" x2="50" y1="450" y2="500" /><line stroke="#4a5568" stroke-width="1" x1="50" x2="0" y1="450" y2="500" /><circle cx="75" cy="25" fill="#2d3748" opacity="0.6" r="8" /><line stroke="#4a5568" stroke-width="1" x1="50" x2="100" y1="0" y2="50" /><line stroke="#4a5568" stroke-width="1" x1="100" x2="50" y1="0" y2="50" /><circle cx="75" cy="75" fill="#2d3748" opacity="0.6" r="8" /><line stroke="#4a5568" stroke-width="1" x1="50" x2="100" y1="50" y2="100" /><line stroke="#4a5568" stroke-width="1" x1="100" x2="50" y1="50" y2="100" /><circle cx="75" cy="125" fill="#2d3748" opacity="0.6" r="8" /><line stroke="#4a5568" stroke-width="1" x1="50" x2="100" y1="100" y2="150" /><line stroke="#4a5568" stroke-width="1" x1="100" x2="50" y1="100" y2="150" /><circle cx="75" cy="175" fill="#2d3748" opacity="0.6" r="8" /><line stroke="#4a5568" stroke-width="1" x1="50" x2="100" y1="150" y2="200" /><line stroke="#4a5568" stroke-width="1" x1="100" x2="50" y1="150" y2="200" /><circle cx="75" cy="225" fill="#2d3748" opacity="0.6" r="8" /><line stroke="#4a5568" stroke-width="1" x1="50" x2="100" y1="200" y2="250" /><line stroke="#4a5568" stroke-width="1" x1="100" x2="50" y1="200" y2="250" /><circle cx="75" cy="275" fill="#2d3748" opacity="0.6" r="8" /><line stroke="#4a5568" stroke-width="1" x1="50" x2="100" y1="250" y2="300" /><line stroke="#4a5568" stroke-width="1" x1="100" x2="50" y1="250" y2="300" /><circle cx="75" cy="325" fill="#2d3748" opacity="0.6" r="8" /><line stroke="#4a5568" stroke-width="1" x1="50" x2="100" y1="300" y2="350" /><line stroke="#4a5568" stroke-width="1" x1="100" x2="50" y1="300" y2="350" /><circle cx="75" cy="375" fill="#2d3748" opacity="0.6" r="8" /><line stroke="#4a5568" stroke-width="1" x1="50" x2="100" y1="350" y2="400" /><line stroke="#4a5568" stroke-width="1" x1="100" x2="50" y1="350" y2="400" /><circle cx="75" cy="425" fill="#2d3748" opacity="0.6" r="8" /><line stroke="#4a5568" stroke-width="1" x1="50" x2="100" y1="400" y2="450" /><line stroke="#4a5568" stroke-width="1" x1="100" x2="50" y1="400" y2="450" /><circle cx="75" cy="475" fill="#2d3748" opacity="0.6" r="8" /><line stroke="#4a5568" stroke-width="1" x1="50" x2="100" y1="450" y2="500" /><line stroke="#4a5568" stroke-width="1" x1="100" x2="50" y1="450" y2="500" /><circle cx="125" cy="25" fill="#2d3748" opacity="0.6" r="8" /><line stroke="#4a5568" stroke-width="1" x1="100" x2="150" y1="0" y2="50" /><line stroke="#4a5568" stroke-width="1" x1="150" x2="100" y1="0" y2="50" /><circle cx="125" cy="75" fill="#2d3748" opacity="0.6" r="8" /><line stroke="#4a5568" stroke-width="1" x1="100" x2="150" y1="50" y2="100" /><line stroke="#4a5568" stroke-width="1" x1="150" x2="100" y1="50" y2="100" /><circle cx="125" cy="125" fill="#2d3748" opacity="0.6" r="8" /><line stroke="#4a5568" stroke-width="1" x1="100" x2="150" y1="100" y2="150" /><line stroke="#4a5568" stroke-width="1" x1="150" x2="100" y1="100" y2="150" /><circle cx="125" cy="175" fill="#2d3748" opacity="0.6" r="8" /><line stroke="#4a5568" stroke-width="1" x1="100" x2="150" y1="150" y2="200" /><line stroke="#4a5568" stroke-width="1" x1="150" x2="100" y1="150" y2="200" /><circle cx="125" cy="225" fill="#2d3748" opacity="0.6" r="8" /><line stroke="#4a5568" stroke-width="1" x1="100" x2="150" y1="200" y2="250" /><line stroke="#4a5568" stroke-width="1" x1="150" x2="100" y1="200" y2="250" /><circle cx="125" cy="275" fill="#2d3748" opacity="0.6" r="8" /><line stroke="#4a5568" stroke-width="1" x1="100" x2="150" y1="250" y2="300" /><line stroke="#4a5568" stroke-width="1" x1="150" x2="100" y1="250" y2="300" /><circle cx="125" cy="325" fill="#2d3748" opacity="0.6" r="8" /><line stroke="#4a5568" stroke-width="1" x1="100" x2="150" y1="300" y2="350" /><line stroke="#4a5568" stroke-width="1" x1="150" x2="100" y1="300" y2="350" /><circle cx="125" cy="375" fill="#2d3748" opacity="0.6" r="8" /><line stroke="#4a5568" stroke-width="1" x1="100" x2="150" y1="350" y2="400" /><line stroke="#4a5568" stroke-width="1" x1="150" x2="100" y1="350" y2="400" /><circle cx="125" cy="425" fill="#2d3748" opacity="0.6" r="8" /><line stroke="#4a5568" stroke-width="1" x1="100" x2="150" y1="400" y2="450" /><line stroke="#4a5568" stroke-width="1" x1="150" x2="100" y1="400" y2="450" /><circle cx="125" cy="475" fill="#2d3748" opacity="0.6" r="8" /><line stroke="#4a5568" stroke-width="1" x1="100" x2="150" y1="450" y2="500" /><line stroke="#4a5568" stroke-width="1" x1="150" x2="100" y1="450" y2="500" /><circle cx="175" cy="25" fill="#2d3748" opacity="0.6" r="8" /><line stroke="#4a5568" stroke-width="1" x1="150" x2="200" y1="0" y2="50" /><line stroke="#4a5568" stroke-width="1" x1="200" x2="150" y1="0" y2="50" /><circle cx="175" cy="75" fill="#2d3748" opacity="0.6" r="8" /><line stroke="#4a5568" stroke-width="1" x1="150" x2="200" y1="50" y2="100" /><line stroke="#4a5568" stroke-width="1" x1="200" x2="150" y1="50" y2="100" /><circle cx="175" cy="125" fill="#2d3748" opacity="0.6" r="8" /><line stroke="#4a5568" stroke-width="1" x1="150" x2="200" y1="100" y2="150" /><line stroke="#4a5568" stroke-width="1" x1="200" x2="150" y1="100" y2="150" /><circle cx="175" cy="175" fill="#2d3748" opacity="0.6" r="8" /><line stroke="#4a5568" stroke-width="1" x1="150" x2="200" y1="150" y2="200" /><line stroke="#4a5568" stroke-width="1" x1="200" x2="150" y1="150" y2="200" /><circle cx="175" cy="225" fill="#2d3748" opacity="0.6" r="8" /><line stroke="#4a5568" stroke-width="1" x1="150" x2="200" y1="200" y2="250" /><line stroke="#4a5568" stroke-width="1" x1="200" x2="150" y1="200" y2="250" /><circle cx="175" cy="275" fill="#2d3748" opacity="0.6" r="8" /><line stroke="#4a5568" stroke-width="1" x1="150" x2="200" y1="250" y2="300" /><line stroke="#4a5568" stroke-width="1" x1="200" x2="150" y1="250" y2="300" /><circle cx="175" cy="325" fill="#2d3748" opacity="0.6" r="8" /><line stroke="#4a5568" stroke-width="1" x1="150" x2="200" y1="300" y2="350" /><line stroke="#4a5568" stroke-width="1" x1="200" x2="150" y1="300" y2="350" /><circle cx="175" cy="375" fill="#2d3748" opacity="0.6" r="8" /><line stroke="#4a5568" stroke-width="1" x1="150" x2="200" y1="350" y2="400" /><line stroke="#4a5568" stroke-width="1" x1="200" x2="150" y1="350" y2="400" /><circle cx="175" cy="425" fill="#2d3748" opacity="0.6" r="8" /><line stroke="#4a5568" stroke-width="1" x1="150" x2="200" y1="400" y2="450" /><line stroke="#4a5568" stroke-width="1" x1="200" x2="150" y1="400" y2="450" /><circle cx="175" cy="475" fill="#2d3748" opacity="0.6" r="8" /><line stroke="#4a5568" stroke-width="1" x1="150" x2="200" y1="450" y2="500" /><line stroke="#4a5568" stroke-width="1" x1="200" x2="150" y1="450" y2="500" /><circle cx="225" cy="25" fill="#2d3748" opacity="0.6" r="8" /><line stroke="#4a5568" stroke-width="1" x1="200" x2="250" y1="0" y2="50" /><line stroke="#4a5568" stroke-width="1" x1="250" x2="200" y1="0" y2="50" /><circle cx="225" cy="75" fill="#2d3748" opacity="0.6" r="8" /><line stroke="#4a5568" stroke-width="1" x1="200" x2="250" y1="50" y2="100" /><line stroke="#4a5568" stroke-width="1" x1="250" x2="200" y1="50" y2="100" /><circle cx="225" cy="125" fill="#2d3748" opacity="0.6" r="8" /><line stroke="#4a5568" stroke-width="1" x1="200" x2="250" y1="100" y2="150" /><line stroke="#4a5568" stroke-width="1" x1="250" x2="200" y1="100" y2="150" /><circle cx="225" cy="175" fill="#2d3748" opacity="0.6" r="8" /><line stroke="#4a5568" stroke-width="1" x1="200" x2="250" y1="150" y2="200" /><line stroke="#4a5568" stroke-width="1" x1="250" x2="200" y1="150" y2="200" /><circle cx="225" cy="225" fill="#2d3748" opacity="0.6" r="8" /><line stroke="#4a5568" stroke-width="1" x1="200" x2="250" y1="200" y2="250" /><line stroke="#4a5568" stroke-width="1" x1="250" x2="200" y1="200" y2="250" /><circle cx="225" cy="275" fill="#2d3748" opacity="0.6" r="8" /><line stroke="#4a5568" stroke-width="1" x1="200" x2="250" y1="250" y2="300" /><line stroke="#4a5568" stroke-width="1" x1="250" x2="200" y1="250" y2="300" /><circle cx="225" cy="325" fill="#2d3748" opacity="0.6" r="8" /><line stroke="#4a5568" stroke-width="1" x1="200" x2="250" y1="300" y2="350" /><line stroke="#4a5568" stroke-width="1" x1="250" x2="200" y1="300" y2="350" /><circle cx="225" cy="375" fill="#2d3748" opacity="0.6" r="8" /><line stroke="#4a5568" stroke-width="1" x1="200" x2="250" y1="350" y2="400" /><line stroke="#4a5568" stroke-width="1" x1="250" x2="200" y1="350" y2="400" /><circle cx="225" cy="425" fill="#2d3748" opacity="0.6" r="8" /><line stroke="#4a5568" stroke-width="1" x1="200" x2="250" y1="400" y2="450" /><line stroke="#4a5568" stroke-width="1" x1="250" x2="200" y1="400" y2="450" /><circle cx="225" cy="475" fill="#2d3748" opacity="0.6" r="8" /><line stroke="#4a5568" stroke-width="1" x1="200" x2="250" y1="450" y2="500" /><line stroke="#4a5568" stroke-width="1" x1="250" x2="200" y1="450" y2="500" /><circle cx="275" cy="25" fill="#2d3748" opacity="0.6" r="8" /><line stroke="#4a5568" stroke-width="1" x1="250" x2="300" y1="0" y2="50" /><line stroke="#4a5568" stroke-width="1" x1="300" x2="250" y1="0" y2="50" /><circle cx="275" cy="75" fill="#2d3748" opacity="0.6" r="8" /><line stroke="#4a5568" stroke-width="1" x1="250" x2="300" y1="50" y2="100" /><line stroke="#4a5568" stroke-width="1" x1="300" x2="250" y1="50" y2="100" /><circle cx="275" cy="125" fill="#2d3748" opacity="0.6" r="8" /><line stroke="#4a5568" stroke-width="1" x1="250" x2="300" y1="100" y2="150" /><line stroke="#4a5568" stroke-width="1" x1="300" x2="250" y1="100" y2="150" /><circle cx="275" cy="175" fill="#2d3748" opacity="0.6" r="8" /><line stroke="#4a5568" stroke-width="1" x1="250" x2="300" y1="150" y2="200" /><line stroke="#4a5568" stroke-width="1" x1="300" x2="250" y1="150" y2="200" /><circle cx="275" cy="225" fill="#2d3748" opacity="0.6" r="8" /><line stroke="#4a5568" stroke-width="1" x1="250" x2="300" y1="200" y2="250" /><line stroke="#4a5568" stroke-width="1" x1="300" x2="250" y1="200" y2="250" /><circle cx="275" cy="275" fill="#2d3748" opacity="0.6" r="8" /><line stroke="#4a5568" stroke-width="1" x1="250" x2="300" y1="250" y2="300" /><line stroke="#4a5568" stroke-width="1" x1="300" x2="250" y1="250" y2="300" /><circle cx="275" cy="325" fill="#2d3748" opacity="0.6" r="8" /><line stroke="#4a5568" stroke-width="1" x1="250" x2="300" y1="300" y2="350" /><line stroke="#4a5568" stroke-width="1" x1="300" x2="250" y1="300" y2="350" /><circle cx="275" cy="375" fill="#2d3748" opacity="0.6" r="8" /><line stroke="#4a5568" stroke-width="1" x1="250" x2="300" y1="350" y2="400" /><line stroke="#4a5568" stroke-width="1" x1="300" x2="250" y1="350" y2="400" /><circle cx="275" cy="425" fill="#2d3748" opacity="0.6" r="8" /><line stroke="#4a5568" stroke-width="1" x1="250" x2="300" y1="400" y2="450" /><line stroke="#4a5568" stroke-width="1" x1="300" x2="250" y1="400" y2="450" /><circle cx="275" cy="475" fill="#2d3748" opacity="0.6" r="8" /><line stroke="#4a5568" stroke-width="1" x1="250" x2="300" y1="450" y2="500" /><line stroke="#4a5568" stroke-width="1" x1="300" x2="250" y1="450" y2="500" /><circle cx="325" cy="25" fill="#2d3748" opacity="0.6" r="8" /><line stroke="#4a5568" stroke-width="1" x1="300" x2="350" y1="0" y2="50" /><line stroke="#4a5568" stroke-width="1" x1="350" x2="300" y1="0" y2="50" /><circle cx="325" cy="75" fill="#2d3748" opacity="0.6" r="8" /><line stroke="#4a5568" stroke-width="1" x1="300" x2="350" y1="50" y2="100" /><line stroke="#4a5568" stroke-width="1" x1="350" x2="300" y1="50" y2="100" /><circle cx="325" cy="125" fill="#2d3748" opacity="0.6" r="8" /><line stroke="#4a5568" stroke-width="1" x1="300" x2="350" y1="100" y2="150" /><line stroke="#4a5568" stroke-width="1" x1="350" x2="300" y1="100" y2="150" /><circle cx="325" cy="175" fill="#2d3748" opacity="0.6" r="8" /><line stroke="#4a5568" stroke-width="1" x1="300" x2="350" y1="150" y2="200" /><line stroke="#4a5568" stroke-width="1" x1="350" x2="300" y1="150" y2="200" /><circle cx="325" cy="225" fill="#2d3748" opacity="0.6" r="8" /><line stroke="#4a5568" stroke-width="1" x1="300" x2="350" y1="200" y2="250" /><line stroke="#4a5568" stroke-width="1" x1="350" x2="300" y1="200" y2="250" /><circle cx="325" cy="275" fill="#2d3748" opacity="0.6" r="8" /><line stroke="#4a5568" stroke-width="1" x1="300" x2="350" y1="250" y2="300" /><line stroke="#4a5568" stroke-width="1" x1="350" x2="300" y1="250" y2="300" /><circle cx="325" cy="325" fill="#2d3748" opacity="0.6" r="8" /><line stroke="#4a5568" stroke-width="1" x1="300" x2="350" y1="300" y2="350" /><line stroke="#4a5568" stroke-width="1" x1="350" x2="300" y1="300" y2="350" /><circle cx="325" cy="375" fill="#2d3748" opacity="0.6" r="8" /><line stroke="#4a5568" stroke-width="1" x1="300" x2="350" y1="350" y2="400" /><line stroke="#4a5568" stroke-width="1" x1="350" x2="300" y1="350" y2="400" /><circle cx="325" cy="425" fill="#2d3748" opacity="0.6" r="8" /><line stroke="#4a5568" stroke-width="1" x1="300" x2="350" y1="400" y2="450" /><line stroke="#4a5568" stroke-width="1" x1="350" x2="300" y1="400" y2="450" /><circle cx="325" cy="475" fill="#2d3748" opacity="0.6" r="8" /><line stroke="#4a5568" stroke-width="1" x1="300" x2="350" y1="450" y2="500" /><line stroke="#4a5568" stroke-width="1" x1="350" x2="300" y1="450" y2="500" /><circle cx="375" cy="25" fill="#2d3748" opacity="0.6" r="8" /><line stroke="#4a5568" stroke-width="1" x1="350" x2="400" y1="0" y2="50" /><line stroke="#4a5568" stroke-width="1" x1="400" x2="350" y1="0" y2="50" /><circle cx="375" cy="75" fill="#2d3748" opacity="0.6" r="8" /><line stroke="#4a5568" stroke-width="1" x1="350" x2="400" y1="50" y2="100" /><line stroke="#4a5568" stroke-width="1" x1="400" x2="350" y1="50" y2="100" /><circle cx="375" cy="125" fill="#2d3748" opacity="0.6" r="8" /><line stroke="#4a5568" stroke-width="1" x1="350" x2="400" y1="100" y2="150" /><line stroke="#4a5568" stroke-width="1" x1="400" x2="350" y1="100" y2="150" /><circle cx="375" cy="175" fill="#2d3748" opacity="0.6" r="8" /><line stroke="#4a5568" stroke-width="1" x1="350" x2="400" y1="150" y2="200" /><line stroke="#4a5568" stroke-width="1" x1="400" x2="350" y1="150" y2="200" /><circle cx="375" cy="225" fill="#2d3748" opacity="0.6" r="8" /><line stroke="#4a5568" stroke-width="1" x1="350" x2="400" y1="200" y2="250" /><line stroke="#4a5568" stroke-width="1" x1="400" x2="350" y1="200" y2="250" /><circle cx="375" cy="275" fill="#2d3748" opacity="0.6" r="8" /><line stroke="#4a5568" stroke-width="1" x1="350" x2="400" y1="250" y2="300" /><line stroke="#4a5568" stroke-width="1" x1="400" x2="350" y1="250" y2="300" /><circle cx="375" cy="325" fill="#2d3748" opacity="0.6" r="8" /><line stroke="#4a5568" stroke-width="1" x1="350" x2="400" y1="300" y2="350" /><line stroke="#4a5568" stroke-width="1" x1="400" x2="350" y1="300" y2="350" /><circle cx="375" cy="375" fill="#2d3748" opacity="0.6" r="8" /><line stroke="#4a5568" stroke-width="1" x1="350" x2="400" y1="350" y2="400" /><line stroke="#4a5568" stroke-width="1" x1="400" x2="350" y1="350" y2="400" /><circle cx="375" cy="425" fill="#2d3748" opacity="0.6" r="8" /><line stroke="#4a5568" stroke-width="1" x1="350" x2="400" y1="400" y2="450" /><line stroke="#4a5568" stroke-width="1" x1="400" x2="350" y1="400" y2="450" /><circle cx="375" cy="475" fill="#2d3748" opacity="0.6" r="8" /><line stroke="#4a5568" stroke-width="1" x1="350" x2="400" y1="450" y2="500" /><line stroke="#4a5568" stroke-width="1" x1="400" x2="350" y1="450" y2="500" /><circle cx="425" cy="25" fill="#2d3748" opacity="0.6" r="8" /><line stroke="#4a5568" stroke-width="1" x1="400" x2="450" y1="0" y2="50" /><line stroke="#4a5568" stroke-width="1" x1="450" x2="400" y1="0" y2="50" /><circle cx="425" cy="75" fill="#2d3748" opacity="0.6" r="8" /><line stroke="#4a5568" stroke-width="1" x1="400" x2="450" y1="50" y2="100" /><line stroke="#4a5568" stroke-width="1" x1="450" x2="400" y1="50" y2="100" /><circle cx="425" cy="125" fill="#2d3748" opacity="0.6" r="8" /><line stroke="#4a5568" stroke-width="1" x1="400" x2="450" y1="100" y2="150" /><line stroke="#4a5568" stroke-width="1" x1="450" x2="400" y1="100" y2="150" /><circle cx="425" cy="175" fill="#2d3748" opacity="0.6" r="8" /><line stroke="#4a5568" stroke-width="1" x1="400" x2="450" y1="150" y2="200" /><line stroke="#4a5568" stroke-width="1" x1="450" x2="400" y1="150" y2="200" /><circle cx="425" cy="225" fill="#2d3748" opacity="0.6" r="8" /><line stroke="#4a5568" stroke-width="1" x1="400" x2="450" y1="200" y2="250" /><line stroke="#4a5568" stroke-width="1" x1="450" x2="400" y1="200" y2="250" /><circle cx="425" cy="275" fill="#2d3748" opacity="0.6" r="8" /><line stroke="#4a5568" stroke-width="1" x1="400" x2="450" y1="250" y2="300" /><line stroke="#4a5568" stroke-width="1" x1="450" x2="400" y1="250" y2="300" /><circle cx="425" cy="325" fill="#2d3748" opacity="0.6" r="8" /><line stroke="#4a5568" stroke-width="1" x1="400" x2="450" y1="300" y2="350" /><line stroke="#4a5568" stroke-width="1" x1="450" x2="400" y1="300" y2="350" /><circle cx="425" cy="375" fill="#2d3748" opacity="0.6" r="8" /><line stroke="#4a5568" stroke-width="1" x1="400" x2="450" y1="350" y2="400" /><line stroke="#4a5568" stroke-width="1" x1="450" x2="400" y1="350" y2="400" /><circle cx="425" cy="425" fill="#2d3748" opacity="0.6" r="8" /><line stroke="#4a5568" stroke-width="1" x1="400" x2="450" y1="400" y2="450" /><line stroke="#4a5568" stroke-width="1" x1="450" x2="400" y1="400" y2="450" /><circle cx="425" cy="475" fill="#2d3748" opacity="0.6" r="8" /><line stroke="#4a5568" stroke-width="1" x1="400" x2="450" y1="450" y2="500" /><line stroke="#4a5568" stroke-width="1" x1="450" x2="400" y1="450" y2="500" /><circle cx="475" cy="25" fill="#2d3748" opacity="0.6" r="8" /><line stroke="#4a5568" stroke-width="1" x1="450" x2="500" y1="0" y2="50" /><line stroke="#4a5568" stroke-width="1" x1="500" x2="450" y1="0" y2="50" /><circle cx="475" cy="75" fill="#2d3748" opacity="0.6" r="8" /><line stroke="#4a5568" stroke-width="1" x1="450" x2="500" y1="50" y2="100" /><line stroke="#4a5568" stroke-width="1" x1="500" x2="450" y1="50" y2="100" /><circle cx="475" cy="125" fill="#2d3748" opacity="0.6" r="8" /><line stroke="#4a5568" stroke-width="1" x1="450" x2="500" y1="100" y2="150" /><line stroke="#4a5568" stroke-width="1" x1="500" x2="450" y1="100" y2="150" /><circle cx="475" cy="175" fill="#2d3748" opacity="0.6" r="8" /><line stroke="#4a5568" stroke-width="1" x1="450" x2="500" y1="150" y2="200" /><line stroke="#4a5568" stroke-width="1" x1="500" x2="450" y1="150" y2="200" /><circle cx="475" cy="225" fill="#2d3748" opacity="0.6" r="8" /><line stroke="#4a5568" stroke-width="1" x1="450" x2="500" y1="200" y2="250" /><line stroke="#4a5568" stroke-width="1" x1="500" x2="450" y1="200" y2="250" /><circle cx="475" cy="275" fill="#2d3748" opacity="0.6" r="8" /><line stroke="#4a5568" stroke-width="1" x1="450" x2="500" y1="250" y2="300" /><line stroke="#4a5568" stroke-width="1" x1="500" x2="450" y1="250" y2="300" /><circle cx="475" cy="325" fill="#2d3748" opacity="0.6" r="8" /><line stroke="#4a5568" stroke-width="1" x1="450" x2="500" y1="300" y2="350" /><line stroke="#4a5568" stroke-width="1" x1="500" x2="450" y1="300" y2="350" /><circle cx="475" cy="375" fill="#2d3748" opacity="0.6" r="8" /><line stroke="#4a5568" stroke-width="1" x1="450" x2="500" y1="350" y2="400" /><line stroke="#4a5568" stroke-width="1" x1="500" x2="450" y1="350" y2="400" /><circle cx="475" cy="425" fill="#2d3748" opacity="0.6" r="8" /><line stroke="#4a5568" stroke-width="1" x1="450" x2="500" y1="400" y2="450" /><line stroke="#4a5568" stroke-width="1" x1="500" x2="450" y1="400" y2="450" /><circle cx="475" cy="475" fill="#2d3748" opacity="0.6" r="8" /><line stroke="#4a5568" stroke-width="1" x1="450" x2="500" y1="450" y2="500" /><line stroke="#4a5568" stroke-width="1" x1="500" x2="450" y1="450" y2="500" /></svg>